<?xml version="1.0" encoding="UTF-8"?>
<!DOCTYPE svg PUBLIC "-//W3C//DTD SVG 1.1//EN" "http://www.w3.org/Graphics/SVG/1.1/DTD/svg11.dtd">
<!-- Creator: CorelDRAW -->
<svg xmlns="http://www.w3.org/2000/svg" xml:space="preserve" width="210mm" height="297mm" version="1.1" style="shape-rendering:geometricPrecision; text-rendering:geometricPrecision; image-rendering:optimizeQuality; fill-rule:evenodd; clip-rule:evenodd"
viewBox="0 0 21000 29700"
 xmlns:xlink="http://www.w3.org/1999/xlink"
 xmlns:xodm="http://www.corel.com/coreldraw/odm/2003">
 <defs>
  <style type="text/css">
   <![CDATA[
    .fil1 {fill:#F29DAA}
    .fil0 {fill:#264796}
    .fil2 {fill:#264796;fill-rule:nonzero}
   ]]>
  </style>
 </defs>
 <g id="Слой_x0020_1">
  <metadata id="CorelCorpID_0Corel-Layer"/>
  <g id="_1965495640464">
   <g>
    <path class="fil0" d="M7445.01 13491.59l164.68 -164.67 823.3 823.31 -164.67 164.67c-274.44,-274.44 -548.84,-548.84 -823.31,-823.31zm6751.61 493.98c-493.97,494 -988.06,988.02 -1482.1,1482.06 -164.69,-164.68 -329.31,-329.33 -494.01,-494.03l-164.61 164.61 493.68 493.68 -164.67 164.68 -493.68 -493.69 -164.68 164.68 493.69 493.68 -164.68 164.68 -493.68 -493.69 -164.68 164.68 494 494 -164.67 164.67c-384.23,-384.23 -768.46,-768.48 -1152.71,-1152.7l-164.76 164.76 -164.67 -164.67c-219.34,219.34 -1152.47,1152.83 -1152.72,1152.72 -494.01,-493.98 -988.02,-988.07 -1482.06,-1482.11 164.68,-164.68 329.33,-329.3 494.03,-494l-164.61 -164.61 -493.68 493.68 -164.68 -164.67 493.69 -493.68 -164.68 -164.68 -493.68 493.68 -164.68 -164.67 493.69 -493.69 -164.67 -164.67 -494.01 494 -164.67 -164.67c384.23,-384.24 768.48,-768.46 1152.7,-1152.71l-164.76 -164.76 164.67 -164.67c43.27,43.27 -1152.81,-1152.13 -1152.66,-1152.79 493.99,-493.99 988.08,-988.02 1482.11,-1482.06 164.68,164.67 329.33,329.34 494.01,494.03l164.61 -164.61 -493.69 -493.68 164.68 -164.68 493.68 493.69 164.68 -164.68 -493.69 -493.68 164.68 -164.67 493.68 493.68 164.68 -164.67 -494 -494.01 164.67 -164.67c384.23,384.23 768.47,768.47 1152.7,1152.7l164.77 -164.76c60.67,60.67 121.32,121.53 181.91,182.08l1152.72 -1152.72c0.05,-0.05 1358.77,1358.78 1482.08,1482.09 -164.68,164.67 -329.35,329.32 -494.04,494.01l164.61 164.61 493.69 -493.69 164.67 164.67 -493.69 493.69 164.68 164.68 493.69 -493.69 164.67 164.67 -493.69 493.69 164.68 164.67 494 -494 164.68 164.68c-384.24,384.23 -768.47,768.46 -1152.7,1152.69l164.76 164.77 -164.68 164.67c213.57,213.57 1135.51,1135.15 1135.4,1135.4zm-1317.42 -988.07l-164.6 164.61 823.37 823.37c-274.48,274.48 -548.91,549.03 -823.45,823.45l-657.26 -660.14 492.64 -492.64 164.68 164.68 -329.39 329.4 329.34 329.34 494.09 -494.08 -658.7 -658.7c-74.25,74.24 -1345.17,1345.16 -1811.42,1811.41l164.68 164.68 988.04 -988.05c274.54,274.54 548.76,548.89 823.31,823.44l1152.72 -1152.72c-350.24,-350.25 -584.83,-584.83 -988.05,-988.05zm-3787.51 3128.82l-1152.73 -1152.72c274.54,-274.54 548.94,-548.74 823.38,-823.38l-987.98 -987.98 164.68 -164.67 1811.41 1811.42 -658.69 658.69 -494.09 -494.09 329.35 -329.34 329.39 329.39 164.68 -164.67 -492.64 -492.64c-5.04,-4.8 -603.78,600.9 -660.14,657.26 69.87,69.9 823.38,823.44 823.45,823.44l823.37 -823.37 164.61 164.61c-411.16,411.16 -635.16,635.16 -988.05,988.05zm-1152.65 -3787.58l164.6 -164.61 -823.36 -823.38c131.86,-131.86 823.32,-823.5 823.44,-823.44l658.65 658.67 -494.03 494.11 -164.68 -164.68 329.4 -329.4 -329.35 -329.34 -494.09 494.09 658.7 658.7 1811.42 -1811.42 -164.67 -164.68 -988.05 988.05c-274.44,-274.44 -548.81,-548.94 -823.31,-823.44l-1152.72 1152.72c349.93,349.94 585.81,585.81 988.05,988.05zm3804.77 -3111.43l1152.72 1152.73c-274.49,274.49 -548.93,548.79 -823.44,823.3l988.05 988.05 -164.68 164.67 -1811.42 -1811.42 658.7 -658.7 494.09 494.1 -329.35 329.35 -329.4 -329.4 -164.67 164.67 492.64 492.64 660.14 -657.26c0.07,-0.15 -754.67,-754.67 -823.44,-823.44l-823.38 823.37 -164.61 -164.61c393.06,-393.06 641.16,-641.16 988.05,-988.05zm-3804.84 3440.84l2470.12 -2470.11 2470.11 2470.11 -2470.05 2470.05 -2470.18 -2470.05zm1811.42 -2799.47l-823.31 823.31 -164.67 -164.67c274.44,-274.44 548.84,-548.84 823.31,-823.31l164.67 164.67zm3640.1 1993.36l-164.68 164.68 -823.31 -823.31 164.68 -164.68c274.47,274.47 548.87,548.87 823.31,823.31zm-2157.96 3770.19l-164.67 -164.67 823.3 -823.31 164.67 164.67c-274.43,274.43 -548.86,548.85 -823.3,823.31z"/>
    <path class="fil0" d="M9915.16 13656.17c164.71,-164.71 329.32,-329.32 494.03,-494.03l494.02 494.03 -494.02 494.09c-41.98,-41.98 -494.03,-493.96 -494.03,-494.09zm494.06 164.7l164.67 -164.67 -164.67 -164.67 -164.67 164.67 164.67 164.67z"/>
    <path class="fil1" d="M11067.86 13491.58c-219.59,-219.59 -439.07,-439.18 -658.71,-658.82 -54.87,54.87 -658.57,658.81 -658.7,658.7 -274.44,-274.44 -548.87,-548.88 -823.31,-823.32l164.67 -164.67 658.64 658.64 494.03 -494.02 -164.68 -164.68c-27.47,27.46 -329.22,329.44 -329.35,329.35l-493.99 -493.99 164.68 -164.67 329.31 329.31 164.68 -164.67 -329.28 -329.28 164.67 -164.68 329.28 329.28 164.68 -164.67 -329.29 -329.28 164.68 -164.68 329.28 329.28 329.35 -329.34 164.68 164.67 -329.35 329.35 164.67 164.67 329.35 -329.34 164.67 164.67 -329.35 329.34 164.75 164.75 329.31 -329.32 164.68 164.68 -493.99 493.99c-0.13,0.1 -301.95,-301.95 -329.42,-329.42l-164.68 164.67 494.1 494.1 658.64 -658.65 164.67 164.68 -823.37 823.37zm-2799.51 -823.53c713.47,713.77 1427.24,1427.35 2140.84,2140.9l2140.7 -2140.9 -2140.77 -2140.76c-713.59,713.59 -1427.29,1427.32 -2140.77,2140.76zm329.45 0.1l1811.42 -1811.42 1811.42 1811.42 -1811.42 1811.42 -1811.42 -1811.42zm1646.68 -329.41l164.67 164.67 164.68 -164.67 -164.68 -164.67 -164.67 164.67z"/>
   </g>
   <path class="fil2" d="M5289.89 18343.79c234.08,0 417.75,54.92 551,164.76 133.25,109.84 199.87,260.19 199.87,451.06 0,190.87 -66.62,341.23 -199.87,451.07 -133.25,109.84 -316.92,164.76 -551,164.76l-329.52 0 0 659.04 -405.15 0 0 -1890.69 734.67 0zm-5.4 861.61c109.84,0 193.12,-19.8 249.84,-59.42 56.72,-39.61 85.08,-98.13 85.08,-175.56 0,-77.43 -28.36,-135.95 -85.08,-175.57 -56.72,-39.61 -140,-59.42 -249.84,-59.42l-324.12 0 0 469.97 324.12 0zm1285.67 607.73l-175.57 421.35 -448.36 0 834.61 -1890.69 391.64 0 826.5 1890.69 -456.46 0 -175.57 -421.35 -796.79 0zm399.75 -961.56l-248.5 594.22 494.29 0 -245.79 -594.22zm1850.17 -113.44l0 1496.35 -405.15 0 0 -1496.35 -645.54 0 0 -394.34 1696.23 0 0 394.34 -645.54 0zm1361.3 753.58l0 742.77 -405.15 0 0 -1890.69 783.29 0c235.88,0 420,51.77 552.35,155.3 132.35,103.54 198.52,250.75 198.52,441.62 0,169.26 -48.62,303.86 -145.85,403.79 -97.24,99.94 -241.29,161.61 -432.16,185.02l742.77 704.96 -556.4 0 -737.37 -742.77zm0 -280.91l372.73 0c108.04,0 190.87,-20.7 248.5,-62.12 57.62,-41.41 86.43,-100.83 86.43,-178.26 0,-77.43 -28.81,-136.85 -86.43,-178.27 -57.63,-41.41 -140.46,-62.12 -248.5,-62.12l-372.73 0 0 480.77zm1915 -867.01l0 1890.69 -405.15 0 0 -1890.69 405.15 0zm1399.11 1931.2c-187.26,0 -357.88,-43.21 -511.83,-129.64 -153.96,-86.43 -275.05,-204.83 -363.29,-355.18 -88.23,-150.36 -132.35,-317.37 -132.35,-501.04 0,-183.66 44.12,-350.68 132.35,-501.03 88.24,-150.36 209.33,-268.75 363.29,-355.18 153.95,-86.43 324.57,-129.65 511.83,-129.65 187.27,0 357.88,43.22 511.84,129.65 153.96,86.43 275.05,204.82 363.28,355.18 88.24,150.35 132.35,317.37 132.35,501.03 0,183.67 -44.11,350.68 -132.35,501.04 -88.23,150.35 -209.32,268.75 -363.28,355.18 -153.96,86.43 -324.57,129.64 -511.84,129.64zm0 -399.74c111.64,0 212.03,-25.21 301.16,-75.63 89.14,-50.42 158.91,-120.19 209.33,-209.33 50.42,-89.13 75.63,-189.52 75.63,-301.16 0,-111.64 -25.21,-212.02 -75.63,-301.16 -50.42,-89.13 -120.19,-158.91 -209.33,-209.32 -89.13,-50.42 -189.52,-75.63 -301.16,-75.63 -111.64,0 -212.02,25.21 -301.16,75.63 -89.13,50.41 -158.9,120.19 -209.32,209.32 -50.42,89.14 -75.63,189.52 -75.63,301.16 0,111.64 25.21,212.03 75.63,301.16 50.42,89.14 120.19,158.91 209.32,209.33 89.14,50.42 189.52,75.63 301.16,75.63zm2139.19 -1137.12l0 1496.35 -405.15 0 0 -1496.35 -645.54 0 0 -394.34 1696.23 0 0 394.34 -645.54 0z"/>
  </g>
 </g>
</svg>
